<svg width="65" height="64" viewBox="0 0 65 64" fill="none" xmlns="http://www.w3.org/2000/svg">
<g clip-path="url(#clip0_1_11461)">
<g clip-path="url(#clip1_1_11461)">
<path opacity="0.78" d="M32.2942 8.42383V16.2478L48.0549 24.0718L40.1746 12.3358L32.2942 8.42383Z" fill="#111111" stroke="white" stroke-miterlimit="10"/>
<path opacity="0.78" d="M32.2942 8.42383V16.2478L16.5334 24.0718L24.4138 12.3358L32.2942 8.42383Z" fill="#111111" stroke="white" stroke-miterlimit="10"/>
<path d="M32.2942 31.8955V16.2475L16.5335 24.0715L24.4138 12.3356L32.2942 8.42357V0.599609L0.772705 16.2475V31.8955L16.5335 24.0715L8.65308 35.8074L0.772705 39.7194V47.5434L32.2942 31.8955Z" fill="#111111"/>
<path d="M16.5335 24.0715L32.2942 16.2475V31.8955L0.772705 47.5434V39.7194L8.65308 35.8074L16.5335 24.0715ZM16.5335 24.0715L24.4138 12.3356L32.2942 8.42357V0.599609L0.772705 16.2475V31.8955L16.5335 24.0715Z" stroke="white" stroke-miterlimit="10"/>
<path d="M32.2942 31.8955V16.2475L48.0549 24.0715L40.1746 12.3356L32.2942 8.42357V0.599609L63.8157 16.2475V31.8955L48.0549 24.0715L55.9353 35.8074L63.8157 39.7194V47.5434L32.2942 31.8955Z" fill="#111111" stroke="white" stroke-miterlimit="10"/>
<path opacity="0.78" d="M63.8157 24.0713V31.8953L48.0549 39.7192L55.9353 27.9833L63.8157 24.0713Z" fill="#171717" stroke="white" stroke-miterlimit="10"/>
<path opacity="0.78" d="M32.2942 55.3676V47.5437L48.0549 39.7197L40.1746 51.4557L32.2942 55.3676Z" fill="#171717" stroke="white" stroke-miterlimit="10"/>
<path d="M63.8157 47.5439V31.896L48.0549 39.7199L55.9353 27.984L63.8157 24.072V16.248L32.2942 31.896V47.5439L48.0549 39.7199L40.1746 51.4559L32.2942 55.3679V63.1918L63.8157 47.5439Z" fill="#171717" stroke="white" stroke-miterlimit="10"/>
<path d="M0.772705 47.5439V31.896L16.5335 39.7199L8.65308 27.984L0.772705 24.072V16.248L32.2942 31.896V47.5439L16.5335 39.7199L24.4138 51.4559L32.2942 55.3679V63.1918L0.772705 47.5439Z" fill="#171717" stroke="white" stroke-miterlimit="10"/>
<path opacity="0.78" d="M0.772705 24.0713V31.8953L16.5335 39.7192L8.65308 27.9833L0.772705 24.0713Z" fill="#171717" stroke="white" stroke-miterlimit="10"/>
<path opacity="0.78" d="M32.2942 55.3676V47.5437L16.5334 39.7197L24.4138 51.4557L32.2942 55.3676Z" fill="#171717" stroke="white" stroke-miterlimit="10"/>
<path opacity="0.78" d="M0.772705 24.0713V31.8953L16.5335 39.7192L8.65308 27.9833L0.772705 24.0713Z" fill="#171717" stroke="white" stroke-miterlimit="10"/>
<path opacity="0.78" d="M32.2942 55.3676V47.5437L16.5334 39.7197L24.4138 51.4557L32.2942 55.3676Z" fill="#171717" stroke="white" stroke-miterlimit="10"/>
</g>
</g>
<defs>
<clipPath id="clip0_1_11461">
<rect width="65" height="64" fill="white"/>
</clipPath>
<clipPath id="clip1_1_11461">
<rect width="63.9186" height="64" fill="white" transform="translate(0.334961 -0.104492)"/>
</clipPath>
</defs>
</svg>
