<svg width="65" height="64" viewBox="0 0 65 64" fill="none" xmlns="http://www.w3.org/2000/svg">
<g clip-path="url(#clip0_1_20104)">
<g clip-path="url(#clip1_1_20104)">
<path d="M32.2945 31.8955V16.2475L16.5337 24.0715L24.4141 12.3356L32.2945 8.42357V0.599609L0.772949 16.2475V31.8955L16.5337 24.0715L8.65333 35.8074L0.772949 39.7194V47.5434L32.2945 31.8955Z" fill="#111111" stroke="white" stroke-miterlimit="10"/>
<path d="M32.2944 31.8955V16.2475L48.0552 24.0715L40.1748 12.3356L32.2944 8.42357V0.599609L63.816 16.2475V31.8955L48.0552 24.0715L55.9356 35.8074L63.816 39.7194V47.5434L32.2944 31.8955Z" fill="#111111" stroke="white" stroke-miterlimit="10"/>
<path opacity="0.78" d="M63.8159 24.0713V31.8953L48.0552 39.7192L55.9356 27.9833L63.8159 24.0713Z" fill="#111111" stroke="white" stroke-miterlimit="10"/>
<path opacity="0.78" d="M32.2944 55.3676V47.5437L48.0552 39.7197L40.1748 51.4557L32.2944 55.3676Z" fill="#111111" stroke="white" stroke-miterlimit="10"/>
<path d="M33.4607 34.1841C43.5954 31.5011 50.9891 26.2649 49.9749 22.4887C48.9608 18.7125 39.9228 17.8262 29.7881 20.5092C19.6533 23.1922 12.2596 28.4284 13.2738 32.2046C14.2879 35.9809 23.3259 36.8671 33.4607 34.1841Z" stroke="white" stroke-miterlimit="10"/>
<path d="M41.7827 43.2624C45.7397 40.775 44.3968 31.6227 38.7833 22.8202C33.1698 14.0177 25.4113 8.89828 21.4543 11.3857C17.4973 13.8732 18.8402 23.0255 24.4537 31.828C30.0672 40.6305 37.8257 45.7499 41.7827 43.2624Z" stroke="white" stroke-miterlimit="10"/>
<path d="M18.9238 41.0796C15.9248 38.5499 18.9938 30.0653 25.7841 22.1283C32.5743 14.1913 40.5072 9.80554 43.5062 12.3353" stroke="white" stroke-miterlimit="10"/>
<path d="M35.6619 42.3709C44.0514 40.1499 50.1642 35.7865 49.3151 32.625C48.466 29.4634 40.9767 28.701 32.5871 30.9219C24.1976 33.1429 18.0848 37.5063 18.9339 40.6678C19.7829 43.8294 27.2723 44.5919 35.6619 42.3709Z" stroke="white" stroke-miterlimit="10"/>
<path opacity="0.73" d="M34.0914 41.2176C41.8402 39.85 47.0051 32.5047 45.6277 24.8114C44.2502 17.1181 36.8519 11.9901 29.1031 13.3577C21.3544 14.7253 16.1894 22.0706 17.5669 29.7639C18.9444 37.4572 26.3427 42.5852 34.0914 41.2176Z" fill="#A1A3A5"/>
<path d="M43.559 12.5576C46.5579 15.0874 43.4889 23.572 36.6987 31.509C29.9084 39.446 21.9755 43.8317 18.9766 41.302" stroke="white" stroke-miterlimit="10"/>
<path d="M38.55 44.8462C48.3148 41.0312 53.1158 30.0792 49.2732 20.3843C45.4307 10.6894 34.3997 5.92277 24.6349 9.7378C14.8701 13.5528 10.0691 24.5048 13.9116 34.1997C17.7542 43.8947 28.7851 48.6613 38.55 44.8462Z" stroke="white" stroke-miterlimit="10"/>
<path d="M30.6028 23.5164C38.9923 21.2954 45.1051 16.932 44.256 13.7705C43.407 10.6089 35.9176 9.84646 27.528 12.0674C19.1385 14.2884 13.0257 18.6518 13.8748 21.8133C14.7239 24.9749 22.2132 25.7374 30.6028 23.5164Z" stroke="white" stroke-miterlimit="10"/>
<path d="M21.4546 11.3928C25.4123 8.90652 33.1701 14.0225 38.7827 22.8245C44.3952 31.6264 45.7349 40.7805 41.7772 43.2667" stroke="white" stroke-miterlimit="10"/>
<path d="M63.816 47.5439V31.896L48.0552 39.7199L55.9356 27.984L63.816 24.072V16.248L32.2944 31.896V47.5439L48.0552 39.7199L40.1748 51.4559L32.2944 55.3679V63.1918L63.816 47.5439Z" fill="#111111" stroke="white" stroke-miterlimit="10"/>
<path d="M0.772949 47.5439V31.896L16.5337 39.7199L8.65333 27.984L0.772949 24.072V16.248L32.2945 31.896V47.5439L16.5337 39.7199L24.4141 51.4559L32.2945 55.3679V63.1918L0.772949 47.5439Z" fill="#111111" stroke="white" stroke-miterlimit="10"/>
<path opacity="0.78" d="M0.772949 24.0713V31.8953L16.5337 39.7192L8.65333 27.9833L0.772949 24.0713Z" fill="#111111" stroke="white" stroke-miterlimit="10"/>
<path opacity="0.78" d="M32.2945 55.3676V47.5437L16.5337 39.7197L24.4141 51.4557L32.2945 55.3676Z" fill="#111111" stroke="white" stroke-miterlimit="10"/>
<path opacity="0.78" d="M0.772949 24.0713V31.8953L16.5337 39.7192L8.65333 27.9833L0.772949 24.0713Z" fill="#111111" stroke="white" stroke-miterlimit="10"/>
<path opacity="0.78" d="M32.2945 55.3676V47.5437L16.5337 39.7197L24.4141 51.4557L32.2945 55.3676Z" fill="#111111" stroke="white" stroke-miterlimit="10"/>
</g>
</g>
<defs>
<clipPath id="clip0_1_20104">
<rect width="65" height="64" fill="white"/>
</clipPath>
<clipPath id="clip1_1_20104">
<rect width="63.9186" height="64" fill="white" transform="translate(0.334961 -0.104492)"/>
</clipPath>
</defs>
</svg>
